# xmcd CD database file
#
# Track frame offsets:
#	150
#	12436
#	37164
#	50518
#	69670
#	86046
#	97701
#	111822
#	134811
#	145335
#	161478
#	172547
#	183905
#	196524
#
# Disc length: 2791 seconds
#
# Revision: 3
# Processed by: cddbd v1.5.2PL0 Copyright (c) Steve Scherf et al.
# Submitted via: CDex 1.70beta2
#
DISCID=b70ae50e
DTITLE=Various Artist - Livin' The Blues - CD2
DYEAR=2000
DGENRE=Blues
TTITLE0=John Lee Hooker - I'm In The Mood
TTITLE1=Jimmy Witherspoon - C.C. Rider
TTITLE2=Mudddy Waters - Baby Please Don't Go
TTITLE3=John Mayall - John Lee Boogie
TTITLE4=B.B. King - Outside Help
TTITLE5=Lightning Slim - G.I. Blues
TTITLE6=Eric Clapton - Draggin' My Tail
TTITLE7=Etta James - Stormy Monday
TTITLE8=John Lee Hooker  - Dusty Road
TTITLE9=B.B. King - It's My Own Fault Baby
TTITLE10=Canned Heat - Can't Hold On
TTITLE11=Johnny Winter - Avocado Green
TTITLE12=Elmore James  - The Sky Is Crying
TTITLE13=Big Joe Williams - Don't Want No Big Fat Woman
EXTD=YEAR: 2000
EXTT0=
EXTT1=
EXTT2=
EXTT3=
EXTT4=
EXTT5=
EXTT6=
EXTT7=
EXTT8=
EXTT9=
EXTT10=
EXTT11=
EXTT12=
EXTT13=
PLAYORDER=
